# This file uses centimeters as units for non-parametric coordinates.

mtllib Rocket.mtl
g default
v 0.440452 0.143111 -0.741619
v 0.374671 0.272214 -0.741619
v 0.272214 0.374671 -0.741619
v 0.143111 0.440452 -0.741619
v 0.000000 0.463118 -0.741619
v -0.143111 0.440452 -0.741619
v -0.272214 0.374671 -0.741619
v -0.374671 0.272214 -0.741619
v -0.440452 0.143111 -0.741619
v -0.463118 -0.000000 -0.741619
v -0.440452 -0.143111 -0.741619
v -0.374671 -0.272214 -0.741619
v -0.272214 -0.374671 -0.741619
v -0.143111 -0.440452 -0.741619
v -0.000000 -0.463118 -0.741619
v 0.143111 -0.440452 -0.741619
v 0.272214 -0.374671 -0.741619
v 0.374671 -0.272214 -0.741619
v 0.440452 -0.143111 -0.741619
v 0.463118 -0.000000 -0.741619
v 0.403087 0.130971 -0.347695
v 0.342885 0.249121 -0.347695
v 0.249121 0.342885 -0.347695
v 0.130971 0.403086 -0.347695
v 0.000000 0.423830 -0.347695
v -0.130971 0.403086 -0.347695
v -0.249121 0.342885 -0.347695
v -0.342885 0.249121 -0.347695
v -0.403086 0.130971 -0.347695
v -0.423829 -0.000000 -0.347695
v -0.403086 -0.130971 -0.347695
v -0.342885 -0.249121 -0.347695
v -0.249121 -0.342885 -0.347695
v -0.130971 -0.403086 -0.347695
v -0.000000 -0.423830 -0.347695
v 0.130971 -0.403086 -0.347695
v 0.249121 -0.342885 -0.347695
v 0.342885 -0.249121 -0.347695
v 0.403086 -0.130971 -0.347695
v 0.423829 -0.000000 -0.347695
v 0.407662 0.132457 -0.741619
v 0.346777 0.251949 -0.741619
v 0.251949 0.346777 -0.741619
v 0.132457 0.407662 -0.741619
v 0.000000 0.428640 -0.741619
v -0.132457 0.407662 -0.741619
v -0.251949 0.346777 -0.741619
v -0.346777 0.251949 -0.741619
v -0.407661 0.132457 -0.741619
v -0.428640 -0.000000 -0.741619
v -0.407661 -0.132457 -0.741619
v -0.346777 -0.251949 -0.741619
v -0.251949 -0.346777 -0.741619
v -0.132457 -0.407661 -0.741619
v -0.000000 -0.428640 -0.741619
v 0.132457 -0.407661 -0.741619
v 0.251949 -0.346777 -0.741619
v 0.346777 -0.251949 -0.741619
v 0.407661 -0.132457 -0.741619
v 0.428640 -0.000000 -0.741619
v 0.079656 0.185852 -0.536671
v 0.018326 0.201370 -0.536671
v -0.044798 0.197178 -0.536671
v -0.103537 0.173684 -0.536671
v -0.152140 0.133188 -0.536671
v -0.185852 0.079656 -0.536671
v -0.201370 0.018326 -0.536671
v -0.197178 -0.044798 -0.536671
v -0.173684 -0.103537 -0.536671
v -0.133188 -0.152140 -0.536671
v -0.079656 -0.185852 -0.536671
v -0.018326 -0.201370 -0.536671
v 0.044798 -0.197178 -0.536671
v 0.103537 -0.173684 -0.536671
v 0.152140 -0.133188 -0.536671
v 0.185852 -0.079656 -0.536671
v 0.201370 -0.018326 -0.536671
v 0.197178 0.044798 -0.536671
v 0.173684 0.103537 -0.536671
v 0.133188 0.152140 -0.536671
v 0.000000 0.000000 -0.903294
v -0.249886 -0.500000 0.500000
v 0.249886 -0.500000 0.500000
v -0.252228 0.500000 0.500000
v 0.252228 0.500000 0.500000
v -0.252228 0.500000 -0.500000
v 0.252228 0.500000 -0.500000
v -0.249886 -0.500000 -0.500000
v 0.249886 -0.500000 -0.500000
v -0.181665 -0.452833 1.175982
v 0.181665 -0.452833 1.175982
v 0.252228 0.009588 1.175982
v -0.252228 0.009588 1.175982
v -0.500000 0.166667 0.500000
v -0.500000 0.166667 -0.500000
v 0.500000 0.166667 -0.500000
v 0.500000 0.166667 0.500000
v 0.272188 -0.160275 1.323573
v -0.272188 -0.160275 1.323573
v -0.500000 -0.231288 0.500000
v -0.500000 -0.231288 -0.500000
v 0.500000 -0.231288 -0.500000
v 0.500000 -0.231288 0.500000
v 0.214716 -0.330137 1.323573
v -0.214716 -0.330137 1.323573
v 0.825315 -0.311351 -0.500000
v 0.825315 -0.272209 0.337816
v 0.825315 -0.166667 -0.500000
v 0.825315 -0.205809 0.337816
v -0.825315 -0.311351 -0.500000
v -0.825315 -0.272209 0.337816
v -0.825315 -0.205809 0.337816
v -0.825315 -0.166667 -0.500000
v 1.272254 -0.500000 -0.629187
v 1.272254 -0.458014 -0.194091
v 1.272254 -0.355316 -0.629187
v 1.272254 -0.397302 -0.194091
v -1.272254 -0.500000 -0.629187
v -1.272254 -0.458014 -0.194091
v -1.272254 -0.397302 -0.194091
v -1.272254 -0.355316 -0.629187
vt 0.008610 0.006542
vt 0.047822 0.006542
vt 0.087035 0.006542
vt 0.126247 0.006542
vt 0.165459 0.006542
vt 0.204672 0.006542
vt 0.243884 0.006542
vt 0.283097 0.006542
vt 0.322309 0.006542
vt 0.361521 0.006542
vt 0.400734 0.006542
vt 0.439946 0.006542
vt 0.479158 0.006542
vt 0.518371 0.006542
vt 0.557583 0.006542
vt 0.596795 0.006542
vt 0.636008 0.006542
vt 0.675220 0.006542
vt 0.714432 0.006542
vt 0.753645 0.006542
vt 0.792857 0.006542
vt 0.008610 0.094263
vt 0.047822 0.094263
vt 0.087035 0.094263
vt 0.126247 0.094263
vt 0.165459 0.094263
vt 0.204672 0.094263
vt 0.243884 0.094263
vt 0.283097 0.094263
vt 0.322309 0.094263
vt 0.361521 0.094263
vt 0.400734 0.094263
vt 0.439946 0.094263
vt 0.479158 0.094263
vt 0.518371 0.094263
vt 0.557583 0.094263
vt 0.596795 0.094263
vt 0.636008 0.094263
vt 0.675220 0.094263
vt 0.714432 0.094263
vt 0.753645 0.094263
vt 0.792857 0.094263
vt 0.974212 0.741237
vt 0.989940 0.710370
vt 0.982100 0.707823
vt 0.967543 0.736392
vt 0.949715 0.765734
vt 0.944870 0.759065
vt 0.918848 0.781462
vt 0.916300 0.773622
vt 0.884631 0.786881
vt 0.884631 0.778638
vt 0.850414 0.781462
vt 0.852961 0.773622
vt 0.819546 0.765734
vt 0.824392 0.759065
vt 0.795050 0.741237
vt 0.801719 0.736392
vt 0.779322 0.710370
vt 0.787162 0.707823
vt 0.773902 0.676153
vt 0.782146 0.676153
vt 0.779322 0.641936
vt 0.787162 0.644483
vt 0.795050 0.611068
vt 0.801719 0.615914
vt 0.819546 0.586572
vt 0.824392 0.593241
vt 0.850414 0.570844
vt 0.852961 0.578684
vt 0.884631 0.565425
vt 0.884631 0.573668
vt 0.918848 0.570844
vt 0.916300 0.578684
vt 0.949715 0.586572
vt 0.944870 0.593241
vt 0.974212 0.611068
vt 0.967543 0.615914
vt 0.989940 0.641936
vt 0.982100 0.644483
vt 0.995359 0.676153
vt 0.987116 0.676153
vt 0.903676 0.720589
vt 0.889012 0.724299
vt 0.873920 0.723297
vt 0.859876 0.717680
vt 0.848255 0.707997
vt 0.840195 0.695198
vt 0.836484 0.680535
vt 0.837487 0.665442
vt 0.843104 0.651398
vt 0.852786 0.639777
vt 0.865586 0.631717
vt 0.880249 0.628007
vt 0.895342 0.629009
vt 0.909386 0.634626
vt 0.921006 0.644308
vt 0.929067 0.657108
vt 0.932777 0.671771
vt 0.931775 0.686864
vt 0.926157 0.700908
vt 0.916475 0.712529
vt 0.884631 0.676153
vt 0.505277 0.424989
vt 0.441433 0.365565
vt 0.810173 0.963085
vt 0.810173 0.770391
vt 0.601728 0.432990
vt 0.601728 0.417214
vt 0.465012 0.363094
vt 0.524436 0.426937
vt 0.696086 0.329136
vt 0.696086 0.133301
vt 0.620045 0.095391
vt 0.620045 0.329136
vt 0.132638 0.318720
vt 0.132638 0.351938
vt 0.430536 0.770391
vt 0.430536 0.963085
vt 0.994072 0.481930
vt 0.049998 0.180994
vt 0.249005 0.259995
vt 0.490643 0.259995
vt 0.614215 0.308627
vt 0.614215 0.275409
vt 0.811914 0.258460
vt 0.811914 0.360162
vt 0.912968 0.992797
vt 0.912968 0.892727
vt 0.800556 0.359333
vt 0.800556 0.257632
vt 0.030026 0.275409
vt 0.030026 0.308627
vt 0.327742 0.892727
vt 0.327742 0.992797
vt 0.511603 0.351938
vt 0.511603 0.318720
vt 0.916383 0.134129
vt 0.916383 0.329965
vt 0.992424 0.329965
vt 0.992424 0.096220
vt 0.495554 0.502280
vt 0.511330 0.502280
vt 0.123118 0.431565
vt 0.203365 0.431565
vt 0.210282 0.477261
vt 0.116201 0.477261
vt 0.104635 0.761620
vt 0.221848 0.761620
vt 0.221848 0.994314
vt 0.104635 0.994314
vt 0.436915 0.337102
vt 0.207327 0.337102
vt 0.264750 0.275409
vt 0.379492 0.275409
vt 0.677827 0.963085
vt 0.562882 0.963085
vt 0.562882 0.733089
vt 0.677827 0.733089
vt 0.754930 0.373069
vt 0.852715 0.363094
vt 0.852715 0.397469
vt 0.754930 0.387494
vt 0.441433 0.753268
vt 0.451409 0.655482
vt 0.465833 0.655482
vt 0.475809 0.753268
vt 0.578572 0.577616
vt 0.662137 0.577616
vt 0.249005 0.098903
vt 0.249005 0.163835
vt 0.049998 0.139949
vt 0.085662 0.110301
vt 0.108708 0.571494
vt 0.217775 0.571494
vt 0.994072 0.440885
vt 0.795066 0.464771
vt 0.795066 0.399839
vt 0.958409 0.411236
vt 0.007514 0.994314
vt 0.007514 0.761620
vt 0.380029 0.504997
vt 0.264212 0.504997
vt 0.207327 0.428468
vt 0.436915 0.428468
vt 0.318968 0.761620
vt 0.318968 0.994314
vt 0.319954 0.512223
vt 0.287223 0.558395
vt 0.103752 0.518067
vt 0.222731 0.518067
vt 0.006528 0.512223
vt 0.039260 0.558395
vt 0.553427 0.464771
vt 0.795066 0.560931
vt 0.553427 0.560931
vt 0.490643 0.163835
vn 0.946362 0.307490 0.099244
vn 0.805022 0.584885 0.099244
vn 0.805022 0.584885 0.099244
vn 0.946362 0.307490 0.099244
vn 0.584884 0.805023 0.099244
vn 0.584884 0.805023 0.099244
vn 0.307490 0.946362 0.099244
vn 0.307490 0.946362 0.099244
vn -0.000000 0.995063 0.099244
vn -0.000000 0.995063 0.099244
vn -0.307491 0.946362 0.099244
vn -0.307491 0.946362 0.099244
vn -0.584884 0.805023 0.099244
vn -0.584884 0.805023 0.099244
vn -0.805023 0.584883 0.099244
vn -0.805023 0.584883 0.099244
vn -0.946362 0.307490 0.099244
vn -0.946362 0.307490 0.099244
vn -0.995063 0.000000 0.099244
vn -0.995063 0.000000 0.099244
vn -0.946362 -0.307490 0.099244
vn -0.946362 -0.307490 0.099244
vn -0.805023 -0.584883 0.099244
vn -0.805023 -0.584883 0.099244
vn -0.584883 -0.805023 0.099244
vn -0.584883 -0.805023 0.099244
vn -0.307490 -0.946362 0.099244
vn -0.307490 -0.946362 0.099244
vn 0.000000 -0.995063 0.099244
vn 0.000000 -0.995063 0.099244
vn 0.307490 -0.946362 0.099244
vn 0.307490 -0.946362 0.099244
vn 0.584883 -0.805023 0.099244
vn 0.584883 -0.805023 0.099244
vn 0.805023 -0.584883 0.099244
vn 0.805023 -0.584883 0.099244
vn 0.946362 -0.307490 0.099244
vn 0.946362 -0.307490 0.099244
vn 0.995063 -0.000003 0.099244
vn 0.995063 -0.000003 0.099244
vn 0.000001 0.000000 -1.000000
vn 0.000001 0.000000 -1.000000
vn 0.000001 0.000000 -1.000000
vn 0.000001 0.000000 -1.000000
vn 0.000001 0.000000 -1.000000
vn 0.000001 0.000000 -1.000000
vn 0.000001 0.000000 -1.000000
vn 0.000001 0.000000 -1.000000
vn 0.000000 0.000000 -1.000000
vn 0.000000 0.000000 -1.000000
vn 0.000000 0.000000 -1.000000
vn 0.000000 0.000000 -1.000000
vn 0.000000 0.000000 -1.000000
vn 0.000000 0.000000 -1.000000
vn 0.000000 0.000000 -1.000000
vn 0.000000 0.000000 -1.000000
vn 0.000000 0.000000 -1.000000
vn 0.000000 0.000000 -1.000000
vn 0.000000 0.000000 -1.000000
vn 0.000000 0.000000 -1.000000
vn 0.000000 0.000000 -1.000000
vn 0.000000 0.000000 -1.000000
vn 0.000000 0.000000 -1.000000
vn 0.000000 0.000000 -1.000000
vn -0.000001 0.000000 -1.000000
vn -0.000001 0.000000 -1.000000
vn -0.000001 0.000000 -1.000000
vn -0.000001 0.000000 -1.000000
vn 0.000000 0.000000 -1.000000
vn 0.000000 0.000000 -1.000000
vn 0.000000 0.000000 -1.000000
vn 0.000000 0.000000 -1.000000
vn 0.000001 0.000000 -1.000000
vn 0.000001 0.000000 -1.000000
vn 0.000001 0.000000 -1.000000
vn 0.000001 0.000000 -1.000000
vn 0.000001 0.000000 -1.000000
vn 0.000001 0.000000 -1.000000
vn 0.000001 0.000000 -1.000000
vn 0.000001 0.000000 -1.000000
vn 0.000001 0.000000 -1.000000
vn 0.000001 0.000000 -1.000000
vn 0.000001 0.000000 -1.000000
vn 0.000001 0.000000 -1.000000
vn 0.000000 0.000000 -1.000000
vn 0.000000 0.000000 -1.000000
vn 0.000000 0.000000 -1.000000
vn 0.000000 0.000000 -1.000000
vn 0.000000 0.000000 -1.000000
vn 0.000000 0.000000 -1.000000
vn 0.000000 0.000000 -1.000000
vn 0.000000 0.000000 -1.000000
vn -0.000001 0.000000 -1.000000
vn -0.000001 0.000000 -1.000000
vn -0.000001 0.000000 -1.000000
vn -0.000001 0.000000 -1.000000
vn 0.000000 0.000000 -1.000000
vn 0.000000 0.000000 -1.000000
vn 0.000000 0.000000 -1.000000
vn 0.000000 0.000000 -1.000000
vn -0.000000 0.000000 -1.000000
vn -0.000000 0.000000 -1.000000
vn -0.000000 0.000000 -1.000000
vn -0.000000 0.000000 -1.000000
vn 0.000001 0.000000 -1.000000
vn 0.000001 0.000000 -1.000000
vn 0.000001 0.000000 -1.000000
vn 0.000001 0.000000 -1.000000
vn -0.000000 0.000000 -1.000000
vn -0.000000 0.000000 -1.000000
vn -0.000000 0.000000 -1.000000
vn -0.000000 0.000000 -1.000000
vn -0.000000 0.000000 -1.000000
vn -0.000000 0.000000 -1.000000
vn -0.000000 0.000000 -1.000000
vn -0.000000 0.000000 -1.000000
vn 0.000000 0.000000 -1.000000
vn 0.000000 0.000000 -1.000000
vn 0.000000 0.000000 -1.000000
vn 0.000000 0.000000 -1.000000
vn -0.478670 -0.433305 -0.763624
vn -0.478670 -0.433305 -0.763624
vn -0.478670 -0.433305 -0.763624
vn -0.478670 -0.433305 -0.763624
vn -0.321345 -0.560013 -0.763625
vn -0.321345 -0.560013 -0.763625
vn -0.321345 -0.560013 -0.763625
vn -0.321345 -0.560013 -0.763625
vn -0.132565 -0.631904 -0.763625
vn -0.132565 -0.631904 -0.763625
vn -0.132565 -0.631904 -0.763625
vn -0.132565 -0.631904 -0.763625
vn 0.069197 -0.641943 -0.763624
vn 0.069197 -0.641943 -0.763623
vn 0.069197 -0.641943 -0.763624
vn 0.069197 -0.641943 -0.763624
vn 0.264174 -0.589141 -0.763626
vn 0.264174 -0.589141 -0.763626
vn 0.264174 -0.589141 -0.763626
vn 0.264174 -0.589141 -0.763626
vn 0.433303 -0.478671 -0.763625
vn 0.433303 -0.478671 -0.763625
vn 0.433303 -0.478671 -0.763625
vn 0.433303 -0.478671 -0.763625
vn 0.560013 -0.321345 -0.763625
vn 0.560013 -0.321345 -0.763625
vn 0.560013 -0.321345 -0.763625
vn 0.560013 -0.321345 -0.763625
vn 0.631904 -0.132565 -0.763625
vn 0.631904 -0.132565 -0.763625
vn 0.631904 -0.132565 -0.763625
vn 0.631904 -0.132565 -0.763625
vn 0.641943 0.069196 -0.763624
vn 0.641943 0.069196 -0.763624
vn 0.641943 0.069196 -0.763624
vn 0.641943 0.069196 -0.763624
vn 0.589141 0.264174 -0.763626
vn 0.589141 0.264174 -0.763626
vn 0.589141 0.264174 -0.763626
vn 0.589141 0.264174 -0.763626
vn 0.478671 0.433303 -0.763625
vn 0.478671 0.433303 -0.763625
vn 0.478671 0.433303 -0.763625
vn 0.478671 0.433303 -0.763625
vn 0.321345 0.560013 -0.763625
vn 0.321345 0.560013 -0.763625
vn 0.321345 0.560013 -0.763625
vn 0.321345 0.560013 -0.763625
vn 0.132565 0.631904 -0.763625
vn 0.132565 0.631904 -0.763625
vn 0.132565 0.631904 -0.763625
vn 0.132565 0.631904 -0.763625
vn -0.069196 0.641943 -0.763624
vn -0.069196 0.641943 -0.763624
vn -0.069196 0.641943 -0.763624
vn -0.069196 0.641943 -0.763624
vn -0.264175 0.589141 -0.763626
vn -0.264175 0.589141 -0.763626
vn -0.264175 0.589141 -0.763626
vn -0.264175 0.589141 -0.763626
vn -0.433302 0.478671 -0.763625
vn -0.433302 0.478671 -0.763625
vn -0.433302 0.478671 -0.763625
vn -0.433302 0.478671 -0.763625
vn -0.560012 0.321345 -0.763625
vn -0.560012 0.321345 -0.763625
vn -0.560012 0.321345 -0.763625
vn -0.560012 0.321345 -0.763625
vn -0.631905 0.132564 -0.763625
vn -0.631905 0.132564 -0.763625
vn -0.631905 0.132564 -0.763625
vn -0.631905 0.132564 -0.763625
vn -0.641943 -0.069196 -0.763624
vn -0.641943 -0.069196 -0.763624
vn -0.641943 -0.069196 -0.763624
vn -0.641943 -0.069196 -0.763624
vn -0.589140 -0.264172 -0.763627
vn -0.589140 -0.264172 -0.763627
vn -0.589140 -0.264172 -0.763627
vn -0.589141 -0.264172 -0.763627
vn 0.079360 0.872047 -0.482946
vn 0.344956 0.804841 -0.482946
vn -0.000002 -0.000000 -1.000000
vn -0.193999 0.853890 -0.482946
vn -0.448372 0.752147 -0.482946
vn -0.658853 0.576781 -0.482945
vn -0.804841 0.344956 -0.482946
vn -0.872047 0.079361 -0.482946
vn -0.853890 -0.193999 -0.482946
vn -0.752147 -0.448373 -0.482946
vn -0.576781 -0.658853 -0.482945
vn -0.344956 -0.804841 -0.482946
vn -0.079362 -0.872047 -0.482946
vn 0.193999 -0.853890 -0.482946
vn 0.448372 -0.752147 -0.482946
vn 0.658853 -0.576781 -0.482945
vn 0.804841 -0.344956 -0.482946
vn 0.872047 -0.079362 -0.482946
vn 0.853890 0.194000 -0.482946
vn 0.752147 0.448373 -0.482946
vn 0.576782 0.658852 -0.482945
vn 0.000000 -0.768980 0.639273
vn 0.000000 -0.768980 0.639273
vn 0.000000 -0.342114 0.939659
vn 0.000000 -0.342114 0.939659
vn 0.000000 1.000000 0.000000
vn 0.000000 1.000000 0.000000
vn 0.000000 1.000000 0.000000
vn 0.000000 1.000000 0.000000
vn -0.000000 0.000000 -1.000000
vn 0.000000 0.000000 -1.000000
vn 0.000000 0.000000 -1.000000
vn -0.000000 0.000000 -1.000000
vn -0.184344 -0.982803 0.010761
vn 0.184344 -0.982803 0.010761
vn 0.131645 -0.991025 0.023222
vn -0.131645 -0.991025 0.023222
vn 0.954284 0.000000 0.298900
vn 0.495472 0.000000 -0.868624
vn 0.225884 0.000000 -0.974154
vn 0.934055 0.000000 0.357129
vn -0.495472 0.000000 -0.868624
vn -0.954284 0.000000 0.298900
vn -0.934055 0.000000 0.357129
vn -0.225884 0.000000 -0.974154
vn 0.000000 -0.997575 0.069606
vn 0.000000 -0.997575 0.069606
vn 0.770056 -0.617523 0.160250
vn 0.980290 -0.154603 0.123002
vn 0.925122 -0.292503 0.242055
vn 0.770056 -0.617523 0.160250
vn 0.000000 0.809425 0.587223
vn 0.000000 0.809425 0.587223
vn 0.000000 0.777918 0.628366
vn 0.000000 0.777918 0.628366
vn -0.925122 -0.292503 0.242055
vn -0.980290 -0.154603 0.123002
vn -0.770056 -0.617523 0.160250
vn -0.770056 -0.617523 0.160250
vn -0.802568 0.596561 0.000000
vn -0.802568 0.596561 0.000000
vn -0.802568 0.596561 0.000000
vn -0.802568 0.596561 0.000000
vn 0.000000 0.000000 -1.000000
vn 0.000000 0.000000 -1.000000
vn 0.000000 0.000000 -1.000000
vn 0.000000 0.000000 -1.000000
vn 0.802568 0.596561 0.000000
vn 0.802568 0.596561 0.000000
vn 0.802568 0.596561 0.000000
vn 0.802568 0.596561 0.000000
vn 0.756411 0.519160 0.397889
vn 0.756411 0.519160 0.397889
vn 0.756411 0.519160 0.397889
vn 0.756411 0.519160 0.397889
vn 0.000000 0.655885 0.754861
vn 0.000000 0.655885 0.754861
vn -0.756411 0.519160 0.397889
vn -0.756411 0.519160 0.397889
vn -0.756411 0.519160 0.397889
vn -0.756411 0.519160 0.397889
vn -1.000000 0.000000 0.000000
vn -0.995603 -0.031315 0.088282
vn -1.000000 0.000000 0.000000
vn 1.000000 0.000000 0.000000
vn 1.000000 0.000000 0.000000
vn 0.995603 -0.031315 0.088282
vn 0.957096 -0.096873 0.273100
vn 0.000000 0.000000 1.000000
vn 0.000000 0.000000 1.000000
vn -0.957096 -0.096873 0.273100
vn 0.342685 -0.939237 0.020004
vn 0.342685 -0.939237 0.020004
vn 0.000000 0.000000 -1.000000
vn 0.000000 0.000000 -1.000000
vn -0.131977 0.991028 0.021107
vn -0.131977 0.991028 0.021107
vn 0.025570 0.999148 0.032396
vn 0.181416 0.982474 0.042806
vn 0.396173 -0.295687 0.869262
vn 0.396173 -0.295687 0.869262
vn 0.554312 -0.189955 0.810343
vn 0.546089 -0.196038 0.814467
vn -0.342685 -0.939237 0.020004
vn -0.342685 -0.939237 0.020004
vn -0.396173 -0.295687 0.869262
vn -0.396173 -0.295687 0.869262
vn -0.546089 -0.196038 0.814467
vn -0.554312 -0.189955 0.810343
vn 0.131977 0.991028 0.021107
vn 0.131977 0.991028 0.021107
vn -0.181416 0.982474 0.042806
vn -0.025570 0.999148 0.032396
vn -0.000000 0.000000 -1.000000
vn -0.000000 0.000000 -1.000000
vn -0.347850 -0.935652 0.059633
vn -0.347850 -0.935652 0.059633
vn -0.347850 -0.935652 0.059633
vn -0.347850 -0.935652 0.059633
vn -0.277680 0.000000 -0.960674
vn -0.277680 0.000000 -0.960674
vn 0.426437 0.902686 0.057532
vn 0.426437 0.902686 0.057532
vn 0.347850 -0.935652 0.059633
vn 0.347850 -0.935652 0.059633
vn 0.347850 -0.935652 0.059633
vn 0.347850 -0.935652 0.059633
vn -0.426437 0.902686 0.057532
vn -0.426437 0.902686 0.057532
vn 0.277680 0.000000 -0.960674
vn 0.277680 0.000000 -0.960674
s 1
g pCylinder2
usemtl initialShadingGroup
f 1/1/1 2/2/2 22/23/3 21/22/4
f 2/2/2 3/3/5 23/24/6 22/23/3
f 3/3/5 4/4/7 24/25/8 23/24/6
f 4/4/7 5/5/9 25/26/10 24/25/8
f 5/5/9 6/6/11 26/27/12 25/26/10
f 6/6/11 7/7/13 27/28/14 26/27/12
f 7/7/13 8/8/15 28/29/16 27/28/14
f 8/8/15 9/9/17 29/30/18 28/29/16
f 9/9/17 10/10/19 30/31/20 29/30/18
f 10/10/19 11/11/21 31/32/22 30/31/20
f 11/11/21 12/12/23 32/33/24 31/32/22
f 12/12/23 13/13/25 33/34/26 32/33/24
f 13/13/25 14/14/27 34/35/28 33/34/26
f 14/14/27 15/15/29 35/36/30 34/35/28
f 15/15/29 16/16/31 36/37/32 35/36/30
f 16/16/31 17/17/33 37/38/34 36/37/32
f 17/17/33 18/18/35 38/39/36 37/38/34
f 18/18/35 19/19/37 39/40/38 38/39/36
f 19/19/37 20/20/39 40/41/40 39/40/38
f 20/20/39 1/21/1 21/42/4 40/41/40
s off
f 2/43/41 1/44/42 41/45/43 42/46/44
f 3/47/45 2/43/46 42/46/47 43/48/48
f 4/49/49 3/47/50 43/48/51 44/50/52
f 5/51/53 4/49/54 44/50/55 45/52/56
f 6/53/57 5/51/58 45/52/59 46/54/60
f 7/55/61 6/53/62 46/54/63 47/56/64
f 8/57/65 7/55/66 47/56/67 48/58/68
f 9/59/69 8/57/70 48/58/71 49/60/72
f 10/61/73 9/59/74 49/60/75 50/62/76
f 11/63/77 10/61/78 50/62/79 51/64/80
f 12/65/81 11/63/82 51/64/83 52/66/84
f 13/67/85 12/65/86 52/66/87 53/68/88
f 14/69/89 13/67/90 53/68/91 54/70/92
f 15/71/93 14/69/94 54/70/95 55/72/96
f 16/73/97 15/71/98 55/72/99 56/74/100
f 17/75/101 16/73/102 56/74/103 57/76/104
f 18/77/105 17/75/106 57/76/107 58/78/108
f 19/79/109 18/77/110 58/78/111 59/80/112
f 20/81/113 19/79/114 59/80/115 60/82/116
f 1/44/117 20/81/118 60/82/119 41/45/120
f 42/46/121 41/45/122 61/83/123 62/84/124
f 43/48/125 42/46/126 62/84/127 63/85/128
f 44/50/129 43/48/130 63/85/131 64/86/132
f 45/52/133 44/50/134 64/86/135 65/87/136
f 46/54/137 45/52/138 65/87/139 66/88/140
f 47/56/141 46/54/142 66/88/143 67/89/144
f 48/58/145 47/56/146 67/89/147 68/90/148
f 49/60/149 48/58/150 68/90/151 69/91/152
f 50/62/153 49/60/154 69/91/155 70/92/156
f 51/64/157 50/62/158 70/92/159 71/93/160
f 52/66/161 51/64/162 71/93/163 72/94/164
f 53/68/165 52/66/166 72/94/167 73/95/168
f 54/70/169 53/68/170 73/95/171 74/96/172
f 55/72/173 54/70/174 74/96/175 75/97/176
f 56/74/177 55/72/178 75/97/179 76/98/180
f 57/76/181 56/74/182 76/98/183 77/99/184
f 58/78/185 57/76/186 77/99/187 78/100/188
f 59/80/189 58/78/190 78/100/191 79/101/192
f 60/82/193 59/80/194 79/101/195 80/102/196
f 41/45/197 60/82/198 80/102/199 61/83/200
s 2
f 62/84/201 61/83/202 81/103/203
f 63/85/204 62/84/201 81/103/203
f 64/86/205 63/85/204 81/103/203
f 65/87/206 64/86/205 81/103/203
f 66/88/207 65/87/206 81/103/203
f 67/89/208 66/88/207 81/103/203
f 68/90/209 67/89/208 81/103/203
f 69/91/210 68/90/209 81/103/203
f 70/92/211 69/91/210 81/103/203
f 71/93/212 70/92/211 81/103/203
f 72/94/213 71/93/212 81/103/203
f 73/95/214 72/94/213 81/103/203
f 74/96/215 73/95/214 81/103/203
f 75/97/216 74/96/215 81/103/203
f 76/98/217 75/97/216 81/103/203
f 77/99/218 76/98/217 81/103/203
f 78/100/219 77/99/218 81/103/203
f 79/101/220 78/100/219 81/103/203
f 80/102/221 79/101/220 81/103/203
f 61/83/202 80/102/221 81/103/203
s 3
f 90/144/222 91/145/223 104/146/224 105/147/225
s off
f 84/148/226 85/149/227 87/150/228 86/151/229
s 4
f 101/152/230 102/153/231 89/154/232 88/155/233
s 5
f 88/156/234 89/157/235 83/158/236 82/159/237
s 6
f 115/160/238 114/161/239 116/162/240 117/163/241
s 7
f 118/164/242 119/165/243 120/166/244 121/167/245
s 5
f 82/159/237 83/158/236 91/168/246 90/169/247
s 8
f 83/170/248 103/171/249 104/172/250 91/173/251
s 9
f 85/149/252 84/148/253 93/174/254 92/175/255
s 10
f 105/176/256 100/177/257 82/178/258 90/179/259
s off
f 95/180/260 94/181/261 84/148/262 86/151/263
s 4
f 86/182/264 87/183/265 96/184/266 95/185/267
s off
f 97/186/268 96/187/269 87/150/270 85/149/271
f 98/188/272 97/186/273 85/149/274 92/189/275
s 9
f 99/190/276 98/191/277 92/175/255 93/174/254
s off
f 84/148/278 94/181/279 99/192/280 93/193/281
s 10
f 101/194/282 100/177/257 94/195/283 95/196/284
s 4
f 95/185/267 96/184/266 102/153/231 101/152/230
s 8
f 103/171/249 102/197/285 96/123/286 97/122/287
f 104/172/250 103/171/249 97/122/287 98/121/288
s 3
f 105/147/225 104/146/224 98/191/289 99/190/290
s 10
f 99/120/291 94/195/283 100/177/257 105/176/256
s 5
f 83/158/236 89/157/235 106/119/292 107/118/293
s 4
f 89/154/232 102/153/231 108/117/294 106/116/295
s 11
f 102/115/296 103/114/297 109/113/298 108/112/299
s 6
f 103/111/300 83/110/301 107/109/302 109/108/303
s 5
f 88/156/234 82/159/237 111/107/304 110/106/305
s 7
f 82/105/306 100/104/307 112/143/308 111/142/309
s 12
f 100/141/310 101/140/311 113/139/312 112/138/313
s 4
f 101/152/230 88/155/233 110/137/314 113/136/315
s off
f 107/118/316 106/119/317 114/135/318 115/134/319
s 6
f 106/116/320 108/117/321 116/133/240 114/132/239
s 11
f 108/112/299 109/113/298 117/131/322 116/130/323
s 6
f 109/108/303 107/109/302 115/160/238 117/163/241
s off
f 110/106/324 111/107/325 119/129/326 118/128/327
s 7
f 111/142/309 112/143/308 120/166/244 119/165/243
s 12
f 112/138/313 113/139/312 121/127/328 120/126/329
s 7
f 113/136/330 110/137/331 118/125/242 121/124/245
